<svg width="33.000000" height="33.000000" viewBox="0 0 33 33" fill="none" xmlns="http://www.w3.org/2000/svg" xmlns:xlink="http://www.w3.org/1999/xlink">
	<desc>
			Created with Pixso.
	</desc>
	<defs/>
	<path id="Vector" d="M32.04 13.27C31.96 13.22 31.87 13.19 31.77 13.18C31.67 13.18 31.58 13.2 31.49 13.24L25.56 16.21L25.56 14.87C25.56 13.83 25.14 12.83 24.4 12.09C23.66 11.35 22.66 10.93 21.62 10.93L3.62 10.93C2.58 10.93 1.58 11.35 0.84 12.09C0.1 12.83 -0.32 13.83 -0.32 14.87L-0.32 22.75C-0.32 23.79 0.1 24.79 0.84 25.53C1.58 26.27 2.58 26.68 3.62 26.68L11.26 26.68L6.6 31.35C6.49 31.45 6.44 31.6 6.44 31.74C6.44 31.89 6.5 32.03 6.6 32.14C6.71 32.24 6.85 32.3 7 32.3C7.14 32.3 7.29 32.25 7.39 32.14L12.62 26.92L17.85 32.14C17.95 32.25 18.1 32.3 18.24 32.3C18.39 32.3 18.53 32.24 18.64 32.14C18.74 32.03 18.8 31.89 18.8 31.74C18.8 31.6 18.75 31.45 18.64 31.35L13.98 26.68L21.62 26.68C22.66 26.68 23.66 26.27 24.4 25.53C25.14 24.79 25.56 23.79 25.56 22.75L25.56 21.41L31.49 24.37C31.58 24.42 31.67 24.44 31.77 24.43C31.87 24.43 31.96 24.4 32.04 24.35C32.12 24.3 32.19 24.23 32.24 24.14C32.28 24.06 32.31 23.97 32.31 23.87L32.31 13.75C32.31 13.65 32.28 13.56 32.24 13.47C32.19 13.39 32.12 13.32 32.04 13.27ZM24.43 22.75C24.43 23.49 24.14 24.21 23.61 24.73C23.08 25.26 22.37 25.56 21.62 25.56L3.62 25.56C2.87 25.56 2.16 25.26 1.63 24.73C1.1 24.21 0.81 23.49 0.81 22.75L0.81 14.87C0.81 14.12 1.1 13.41 1.63 12.88C2.16 12.36 2.87 12.06 3.62 12.06L21.62 12.06C22.37 12.06 23.08 12.36 23.61 12.88C24.14 13.41 24.43 14.12 24.43 14.87L24.43 22.75ZM31.18 22.96L25.56 20.15L25.56 17.47L31.18 14.66L31.18 22.96ZM18.25 9.81C19.25 9.81 20.23 9.51 21.06 8.95C21.89 8.4 22.54 7.61 22.92 6.68C23.31 5.76 23.41 4.74 23.21 3.76C23.01 2.78 22.53 1.87 21.82 1.17C21.12 0.46 20.21 -0.02 19.23 -0.22C18.25 -0.42 17.23 -0.32 16.31 0.07C15.38 0.45 14.59 1.1 14.04 1.93C13.48 2.76 13.18 3.74 13.18 4.75C13.18 6.09 13.72 7.37 14.67 8.32C15.62 9.27 16.9 9.81 18.25 9.81ZM18.25 0.81C19.02 0.81 19.79 1.04 20.43 1.47C21.08 1.9 21.58 2.52 21.88 3.24C22.18 3.96 22.26 4.75 22.11 5.51C21.95 6.28 21.58 6.98 21.03 7.53C20.48 8.08 19.78 8.45 19.01 8.61C18.25 8.76 17.46 8.68 16.74 8.38C16.02 8.08 15.4 7.58 14.97 6.93C14.54 6.29 14.31 5.52 14.31 4.75C14.31 3.7 14.72 2.7 15.46 1.96C16.2 1.22 17.2 0.81 18.25 0.81ZM7 9.81C7.77 9.81 8.54 9.58 9.18 9.14C9.83 8.71 10.33 8.1 10.63 7.38C10.93 6.66 11.01 5.87 10.86 5.1C10.7 4.34 10.33 3.64 9.78 3.09C9.23 2.54 8.53 2.16 7.76 2.01C7 1.86 6.21 1.93 5.49 2.23C4.77 2.53 4.15 3.03 3.72 3.68C3.29 4.33 3.06 5.09 3.06 5.87C3.06 6.91 3.47 7.91 4.21 8.65C4.95 9.39 5.95 9.81 7 9.81ZM7 3.06C7.55 3.06 8.1 3.22 8.56 3.53C9.02 3.84 9.38 4.28 9.59 4.79C9.81 5.31 9.86 5.87 9.75 6.42C9.64 6.96 9.38 7.47 8.98 7.86C8.59 8.25 8.09 8.52 7.54 8.63C7 8.74 6.43 8.68 5.92 8.47C5.4 8.26 4.97 7.9 4.66 7.43C4.35 6.97 4.18 6.43 4.18 5.87C4.18 5.12 4.48 4.41 5.01 3.88C5.53 3.35 6.25 3.06 7 3.06Z" fill="#FFFFFF" fill-opacity="1.000000" fill-rule="nonzero"/>
</svg>
